<svg xmlns="http://www.w3.org/2000/svg" width="686" height="79" viewBox="0 0 686 79" version="1.1"><path d="M 43 1.941 C 43 3.009, 43.468 4.171, 44.041 4.525 C 45.409 5.371, 44.436 8.239, 41.046 13.344 C 38.689 16.894, 24.985 37.761, 8.180 63.388 C 5.696 67.176, 2.839 70.491, 1.832 70.754 C 0.824 71.018, 0 72.081, 0 73.117 C 0 74.861, 0.925 75, 12.500 75 C 23.870 75, 25 74.837, 25 73.200 C 25 72.210, 24.490 70.890, 23.866 70.266 C 23.021 69.421, 23.438 67.906, 25.505 64.316 C 30.285 56.013, 29.009 56.466, 46.682 56.795 L 62.512 57.091 64.208 62.795 L 65.904 68.500 63.430 70.811 C 62.070 72.081, 61.218 73.544, 61.537 74.061 C 61.857 74.577, 68.391 75, 76.059 75 C 88.698 75, 90 74.836, 90 73.241 C 90 72.273, 89.164 70.959, 88.141 70.320 C 87.119 69.682, 85.518 66.761, 84.584 63.830 C 83.650 60.898, 80.264 50.400, 77.059 40.500 C 65.688 5.367, 65.704 5.435, 68.500 4.362 C 69.325 4.045, 70 2.934, 70 1.893 C 70 0.129, 69.079 0, 56.500 0 C 43.803 0, 43 0.116, 43 1.941 M 503 11.500 C 501.948 12.768, 497.444 13, 473.937 13 C 455.370 13, 445.900 13.354, 445.461 14.063 C 445.100 14.648, 445.560 15.961, 446.484 16.982 C 448.286 18.973, 448.392 18.120, 442.492 49 C 441.703 53.125, 440.757 59.101, 440.388 62.281 C 439.902 66.466, 439.071 68.675, 437.376 70.281 C 432.499 74.903, 433.046 75, 463.933 75 C 491.987 75, 492.884 75.061, 493.500 77 C 493.849 78.100, 494.925 79, 495.890 79 C 497.322 79, 497.843 77.569, 498.711 71.250 C 499.297 66.987, 500.098 62.716, 500.492 61.758 C 501.499 59.307, 498.402 58.326, 496.134 60.379 C 494.616 61.753, 491.477 62, 475.563 62 L 456.783 62 457.323 59.750 C 457.620 58.513, 458.169 55.813, 458.543 53.750 L 459.223 50 470.562 50 C 480.001 50, 482.053 50.273, 482.812 51.629 C 484.445 54.547, 486.340 52.500, 487.619 46.439 C 489.334 38.308, 489.335 34, 487.622 34 C 486.865 34, 485.685 34.675, 485 35.500 C 484.033 36.665, 481.327 37, 472.878 37 C 460.809 37, 461.377 37.402, 462.642 29.750 L 463.262 26 480.976 26 C 497.489 26, 498.814 26.137, 500.521 28.024 C 501.773 29.407, 502.677 29.723, 503.379 29.021 C 504.540 27.860, 507.976 11.903, 507.313 10.750 C 506.599 9.508, 504.325 9.903, 503 11.500 M 394 13.517 C 384.683 16.482, 378.801 21.131, 375.885 27.833 C 370.855 39.395, 376.820 49.289, 389.553 50.503 C 395.958 51.114, 409.090 52.861, 412.750 53.590 C 414.372 53.913, 415 54.744, 415 56.568 C 415 64.905, 383.827 65.137, 379.104 56.834 C 378.222 55.283, 377.066 54.155, 376.536 54.328 C 374.987 54.834, 367.003 68.354, 367.282 70 C 367.448 70.975, 368.434 71.395, 370.099 71.201 C 371.508 71.036, 375.325 71.936, 378.581 73.201 C 383.739 75.204, 386.237 75.495, 398 75.459 C 410.741 75.421, 411.822 75.260, 417.231 72.601 C 424.247 69.152, 429.512 63.526, 431.042 57.843 C 434.609 44.596, 426.574 37.680, 405.749 36.073 C 393.012 35.090, 388.480 33.796, 389.398 31.404 C 389.729 30.542, 390 29.660, 390 29.444 C 390 29.228, 391.311 28.373, 392.914 27.545 C 401.656 23.024, 421.570 25.918, 423.497 31.989 C 423.848 33.095, 424.892 33.980, 425.817 33.956 C 427.641 33.909, 436.720 20.867, 435.958 19.389 C 435.706 18.900, 434.375 18.474, 433 18.443 C 431.625 18.411, 427.350 17.094, 423.500 15.516 C 415.063 12.058, 401.478 11.138, 394 13.517 M 104.145 13.890 C 103.015 14.605, 103.040 15.144, 104.294 17.124 C 105.905 19.668, 106.041 18.367, 101.485 44 C 96.772 70.515, 96.779 70.487, 94.423 71.391 C 93.640 71.692, 93 72.626, 93 73.469 C 93 74.751, 94.789 75, 104 75 C 115.452 75, 116.652 74.482, 113.435 70.928 C 112.187 69.549, 112.064 68.417, 112.830 65.349 C 113.358 63.232, 114.553 57, 115.486 51.500 C 116.418 46, 117.489 40.676, 117.867 39.668 C 118.417 38.197, 121.140 40.930, 131.704 53.563 C 144.171 68.470, 144.782 69.403, 143.425 71.475 C 142.637 72.676, 142.295 73.961, 142.663 74.330 C 143.032 74.698, 148.433 75, 154.667 75 C 163.901 75, 166 74.731, 166 73.550 C 166 72.752, 165.242 71.675, 164.315 71.156 C 162.821 70.320, 162.764 69.605, 163.815 64.857 C 164.467 61.910, 165.712 55.225, 166.581 50 C 171.703 19.204, 171.744 19.028, 174.317 16.944 C 177.860 14.076, 175.496 12.999, 165.691 13.015 C 154.753 13.034, 152.992 13.748, 154.935 17.379 C 156.374 20.067, 156.258 21.582, 153.430 37 C 152.472 42.225, 151.661 47.288, 151.630 48.250 C 151.598 49.212, 151.487 50, 151.384 50 C 151.063 50, 131.602 26.717, 128.533 22.662 C 126.059 19.393, 125.809 18.535, 126.848 16.871 C 127.519 15.797, 127.801 14.487, 127.475 13.959 C 126.740 12.771, 106.008 12.709, 104.145 13.890 M 205.214 14.186 C 204.299 15.101, 204.417 15.803, 205.730 17.255 C 207.795 19.536, 209.336 16.789, 189.099 46.901 C 180.038 60.384, 172.732 70.257, 171.349 70.887 C 170.057 71.475, 169 72.642, 169 73.479 C 169 74.756, 170.925 75, 181 75 C 190.782 75, 193 74.734, 193 73.559 C 193 72.766, 192.550 71.840, 192 71.500 C 190.319 70.461, 190.875 67.648, 193.536 63.732 L 196.072 60 209.061 60 L 222.050 60 223.025 62.565 C 224.479 66.389, 224.250 71, 222.607 71 C 221.099 71, 219.762 73.429, 220.736 74.402 C 221.064 74.731, 227.108 75, 234.167 75 C 244.683 75, 247 74.739, 247 73.557 C 247 72.763, 246.072 71.464, 244.939 70.670 C 243.615 69.743, 241.281 64.620, 238.420 56.363 C 235.969 49.288, 232.105 38.199, 229.835 31.720 L 225.707 19.941 227.958 17.545 C 229.196 16.226, 229.911 14.665, 229.546 14.074 C 228.598 12.540, 206.759 12.641, 205.214 14.186 M 261.250 13.662 C 259.646 14.310, 259.628 16.709, 261.224 17.241 C 262.617 17.706, 262.209 20.946, 257.036 50.500 C 254.358 65.807, 253.519 68.884, 251.429 71.069 C 250.078 72.482, 249.278 73.945, 249.653 74.319 C 250.027 74.694, 262.168 75, 276.631 75 C 302.165 75, 302.962 75.060, 304.033 77.061 C 304.639 78.194, 305.645 78.952, 306.268 78.744 C 307.459 78.347, 311.178 61.098, 310.358 59.771 C 309.544 58.454, 306.966 58.924, 306.362 60.500 C 305.881 61.751, 302.987 62, 288.893 62 C 269.556 62, 271.159 63.131, 273.442 51.100 C 274.235 46.920, 275.848 38.100, 277.026 31.500 C 278.691 22.170, 279.629 19.139, 281.240 17.878 C 282.524 16.873, 283.074 15.636, 282.687 14.628 C 282.166 13.270, 280.443 13.013, 272.281 13.079 C 266.902 13.122, 261.938 13.385, 261.250 13.662 M 309.289 14.690 C 308.918 15.657, 309.169 16.556, 309.876 16.792 C 311.587 17.362, 314.407 20.512, 316.090 23.731 C 316.866 25.215, 320.129 31.170, 323.342 36.964 L 329.184 47.500 327.444 58 C 326.063 66.332, 325.214 68.977, 323.330 70.811 C 322.025 72.081, 321.218 73.544, 321.537 74.061 C 322.355 75.384, 343.716 75.269, 344.539 73.937 C 344.900 73.352, 344.490 72.093, 343.626 71.139 C 341.983 69.324, 341.938 69.962, 344.860 53.743 C 345.856 48.215, 346.441 47.394, 359.566 33.072 C 367.279 24.656, 374.273 17.897, 375.617 17.560 C 377.124 17.182, 378 16.234, 378 14.981 C 378 13.108, 377.292 13, 364.969 13 C 353.656 13, 351.852 13.223, 351.289 14.690 C 350.927 15.634, 351.161 16.554, 351.820 16.773 C 354.125 17.542, 352.922 20.039, 346.847 27.098 L 340.694 34.246 337.783 28.399 C 336.182 25.182, 334.409 21.993, 333.844 21.312 C 333.101 20.417, 333.560 19.386, 335.499 17.588 C 336.974 16.221, 337.889 14.629, 337.532 14.051 C 337.129 13.400, 331.751 13, 323.410 13 C 311.683 13, 309.853 13.219, 309.289 14.690 M 46.830 31.240 C 43.814 35.783, 40.615 40.625, 39.722 42 L 38.096 44.500 48.298 44.326 C 53.909 44.231, 58.426 43.781, 58.337 43.326 C 58.022 41.738, 52.753 23.498, 52.534 23.240 C 52.413 23.097, 49.846 26.697, 46.830 31.240 M 208.108 41.620 L 202.930 49.500 210.086 49.796 C 214.021 49.959, 217.463 49.870, 217.735 49.598 C 218.007 49.326, 217.118 45.646, 215.758 41.421 L 213.286 33.739 208.108 41.620" stroke="none" fill="#040404" fill-rule="evenodd"/><path d="M 519 1.514 C 519 2.346, 519.525 3.868, 520.167 4.896 C 521.059 6.324, 521.049 8.387, 520.126 13.633 C 519.461 17.410, 518.262 24.325, 517.461 29 C 516.660 33.675, 515.348 41.100, 514.545 45.500 C 513.742 49.900, 512.553 56.875, 511.902 61 C 511.128 65.907, 510.076 69.074, 508.859 70.160 C 507.837 71.073, 507 72.536, 507 73.410 C 507 74.766, 508.608 75, 517.941 75 C 524.143 75, 529.149 74.568, 529.499 74.002 C 529.838 73.453, 529.486 72.104, 528.716 71.005 C 527.724 69.589, 527.526 67.767, 528.037 64.753 C 528.434 62.414, 530.023 53.180, 531.569 44.234 L 534.379 27.968 539.151 41.734 C 541.776 49.305, 544.296 56.175, 544.752 57 C 545.208 57.825, 546.688 61.980, 548.041 66.234 C 549.672 71.364, 551.005 73.965, 552 73.958 C 552.825 73.953, 560.899 63.847, 569.943 51.500 C 578.986 39.154, 586.480 29.153, 586.596 29.276 C 586.711 29.399, 585.949 34.450, 584.902 40.500 C 583.856 46.550, 582.485 55.100, 581.857 59.500 C 581.005 65.464, 580.114 68.150, 578.357 70.055 C 574.172 74.591, 574.971 75, 588.031 75 C 597.969 75, 600.166 74.731, 600.657 73.452 C 600.992 72.578, 600.503 71.357, 599.534 70.648 C 598.083 69.588, 597.975 68.781, 598.835 65.447 C 599.395 63.276, 600.339 58.350, 600.932 54.500 C 601.525 50.650, 602.671 43.900, 603.479 39.500 C 604.287 35.100, 605.888 25.875, 607.037 19 C 608.654 9.319, 609.563 6.191, 611.063 5.128 C 612.128 4.373, 613 2.911, 613 1.878 C 613 0.127, 612.019 0, 598.500 0 C 585.204 0, 584 0.149, 584 1.800 C 584 2.790, 584.441 4.041, 584.980 4.580 C 585.620 5.220, 584.319 7.877, 581.230 12.238 C 562.714 38.381, 559.421 42.886, 558.789 42.940 C 558.397 42.973, 557.576 41.140, 556.964 38.868 C 556.352 36.595, 555.472 34.007, 555.008 33.118 C 553.513 30.250, 547.015 11.599, 546.412 8.444 C 546.006 6.319, 546.311 4.987, 547.414 4.072 C 548.286 3.348, 549 2.135, 549 1.378 C 549 0.269, 546.074 0, 534 0 C 521.274 0, 519 0.229, 519 1.514 M 624 1.950 C 624 3.023, 624.641 4.260, 625.424 4.700 C 626.637 5.381, 626.488 7.575, 624.417 19.500 C 623.080 27.200, 620.642 41.375, 619 51 C 616.613 64.994, 615.613 68.833, 614.007 70.160 C 612.903 71.073, 612 72.536, 612 73.410 C 612 74.831, 615.500 75, 644.933 75 C 676.987 75, 677.882 75.053, 678.500 77 C 679.283 79.467, 681.543 79.608, 682.486 77.250 C 683.820 73.912, 685.660 59.068, 684.893 57.827 C 684.310 56.884, 683.594 57.058, 681.958 58.540 C 679.971 60.340, 677.999 60.525, 657.751 60.805 L 635.708 61.111 636.347 56.305 C 636.699 53.662, 637.896 46.550, 639.009 40.500 C 640.122 34.450, 641.470 26.800, 642.006 23.500 C 644.205 9.953, 645.339 5.805, 647.155 4.671 C 648.170 4.037, 649 2.727, 649 1.759 C 649 0.174, 647.764 0, 636.500 0 C 624.773 0, 624 0.121, 624 1.950" stroke="none" fill="#0b149b" fill-rule="evenodd"/></svg>